<svg id="레이어_1" data-name="레이어 1" xmlns="http://www.w3.org/2000/svg" viewBox="0 0 547.57 225.57"><defs><style>.cls-1{fill:#e02636;}.cls-2{fill:#231916;}.cls-3{fill:#ea8b00;}.cls-4{fill:#007ac3;}</style></defs><path class="cls-1" d="M183.58,189.35c-3.83-29-18.1-52.6-32.67-52.71S115,160.29,102.62,189.39s1.63,52.71,32.85,52.71c31.41-.32,51.95-23.73,48.11-52.75" transform="translate(-2.53 -16.53)"/><path class="cls-2" d="M34.77,112.23h0c-18.64,0-32.24,14.73-32.24,33.38s13.6,32.92,32.24,32.92a34,34,0,0,0,26.62-12.74c-.7-.65-2.48-4.47-8.49-4.47-5.66,0-6.94,5.67-18.13,5.67-11,0-20.07-9.31-20.07-21.38s9.1-21.82,20.07-21.82c10,0,12.4,5.94,17.54,5.94s8.14-4.11,8.84-4.76a33.54,33.54,0,0,0-26.38-12.74" transform="translate(-2.53 -16.53)"/><path class="cls-2" d="M100.5,114.16H74.3c-4.42,0-7.53,2.66-7.53,6.88v3.87H78.46s.44,39.46-.06,43.72v0c-.17,3.25-1.58,11-9.08,14.57-6.16,2.88-6.22,5.65-6.54,9.93.09.31.22.5.4.51h0a.08.08,0,0,0,.07,0c.23-.06,6.12-1.5,7-1.86l0,0c5.54-1.72,14-5.5,18-13.36,0,0,3.78-5.82,3.71-18.32V124.91h.55c4.44,0,8-2.66,8-6.88v-3.87" transform="translate(-2.53 -16.53)"/><path class="cls-3" d="M235.63,93.41c-27.33-10.75-54.94-9.62-62,3.11-6.87,12.92,3.33,42.77,22.77,67.73s46.87,24.13,62-3.17c15-27.22,4.45-57-22.8-67.67" transform="translate(-2.53 -16.53)"/><path class="cls-4" d="M96.66,102.12c24.26,16.57,51.42,21.58,61,10.83s6.36-42.46-7-71.14-40.35-34-61.18-10.72c-20.56,23.21-17,54.52,7.17,71" transform="translate(-2.53 -16.53)"/><path class="cls-2" d="M315.75,159.28c-2.79.48-6.63.89-10.39,1.17s-7.72.44-11.9.44H281.59v-38a6.36,6.36,0,0,1,1.72-4.72,6.27,6.27,0,0,1,4.55-1.68h22.45v3.17a3.31,3.31,0,0,1-.43,1.85,3.22,3.22,0,0,1-1,1,2.51,2.51,0,0,1-1.08.4,6.13,6.13,0,0,1-.75.07H291.37v31.56h8.77q2.82,0,6.95-.33c2.73-.23,6-.54,8.66-1v-32.9a6.87,6.87,0,0,1,1.48-4.71,5.44,5.44,0,0,1,4.31-1.69h4.13v19.49h4.77V120.29a6.79,6.79,0,0,1,1.53-4.71,5.43,5.43,0,0,1,4.28-1.69h4.11v58.2a7,7,0,0,1-1.45,4.74,5.19,5.19,0,0,1-4.15,1.66h-4.32V139.78h-4.77v32.31a6.72,6.72,0,0,1-1.53,4.74,5.38,5.38,0,0,1-4.21,1.66h-4.18Z" transform="translate(-2.53 -16.53)"/><path class="cls-2" d="M414.77,137.28H404.12v17.05a6.62,6.62,0,0,1-1.51,4.71,5.62,5.62,0,0,1-4.29,1.63h-4.11V120.36a6.81,6.81,0,0,1,1.52-4.73,5.31,5.31,0,0,1,4.14-1.68h4.25v16.86h7.36a6.32,6.32,0,0,1,.73.1,3.66,3.66,0,0,1,2.12,1.42,3,3,0,0,1,.44,1.72Zm-39.3-2.65a10.2,10.2,0,0,0-.67-3.7,10.48,10.48,0,0,0-1.76-3.07,8.74,8.74,0,0,0-2.62-2.1,6.82,6.82,0,0,0-6.41,0,8.58,8.58,0,0,0-2.61,2.1,9.62,9.62,0,0,0-1.74,3.07,10.85,10.85,0,0,0-.63,3.7,10.6,10.6,0,0,0,2.39,7,7.32,7.32,0,0,0,5.79,2.87,7.42,7.42,0,0,0,5.83-2.87,10.42,10.42,0,0,0,2.43-7m29.32,37.45v3a3.33,3.33,0,0,1-.44,1.88,3.06,3.06,0,0,1-1,1,2.72,2.72,0,0,1-1.11.4,7,7,0,0,1-.78.07H358.06V163.66a7,7,0,0,1,1.48-4.73,5.48,5.48,0,0,1,4.32-1.68H368v14.83Zm-18.38-50.64a3.17,3.17,0,0,1-1.49,3,2.74,2.74,0,0,1-1.14.4,6.83,6.83,0,0,1-.78.07h-1.14a16.19,16.19,0,0,1,2.77,4.52,13.59,13.59,0,0,1,1,5.22,14.17,14.17,0,0,1-1.5,6.48,15.8,15.8,0,0,1-4.05,5.1,18.36,18.36,0,0,1-5.83,3.34,20.71,20.71,0,0,1-7,1.21,21.32,21.32,0,0,1-7.1-1.17,17.35,17.35,0,0,1-5.84-3.38,15.58,15.58,0,0,1-4-5.1,14.53,14.53,0,0,1-1.45-6.48,13.65,13.65,0,0,1,1-5.18,15.14,15.14,0,0,1,2.84-4.56H348V121.8a3.51,3.51,0,0,1,.42-1.86,3,3,0,0,1,1.07-1,3.28,3.28,0,0,1,1.14-.44,5.15,5.15,0,0,1,.85-.11h10.6V116.9a5.27,5.27,0,0,1,1.1-3.55,4.19,4.19,0,0,1,3.37-1.29h6.05v6.28h13.79Z" transform="translate(-2.53 -16.53)"/><path class="cls-2" d="M460.11,167.73a6.17,6.17,0,0,0-.86-3.12A9.68,9.68,0,0,0,457,162a12.2,12.2,0,0,0-7.49-2.55,12.59,12.59,0,0,0-4.2.69,10.64,10.64,0,0,0-3.37,1.86,8.61,8.61,0,0,0-2.3,2.63,6.44,6.44,0,0,0-.82,3.12,6.7,6.7,0,0,0,.82,3.22,8.63,8.63,0,0,0,2.3,2.67,11.55,11.55,0,0,0,3.37,1.76,13.38,13.38,0,0,0,4.2.64,12.71,12.71,0,0,0,4.07-.64,13,13,0,0,0,3.42-1.76,9.68,9.68,0,0,0,2.26-2.67,6.42,6.42,0,0,0,.86-3.22m10.6-.07h.07a10.62,10.62,0,0,1-1.7,5.79,16,16,0,0,1-4.6,4.69,24.52,24.52,0,0,1-6.78,3.16,29.85,29.85,0,0,1-16.48,0,24.12,24.12,0,0,1-6.78-3.16,15.55,15.55,0,0,1-4.57-4.69,10.83,10.83,0,0,1-1.66-5.79,10.49,10.49,0,0,1,1.66-5.62,15.9,15.9,0,0,1,4.57-4.65,24.12,24.12,0,0,1,6.78-3.16,29,29,0,0,1,8.28-1.16,28.39,28.39,0,0,1,8.16,1.16,24.46,24.46,0,0,1,6.75,3.16A16.27,16.27,0,0,1,469,162a10.37,10.37,0,0,1,1.7,5.62m2.2-40.52a3.33,3.33,0,0,1-.44,1.82,2.46,2.46,0,0,1-1,.95,2.69,2.69,0,0,1-1.09.4,5.86,5.86,0,0,1-.74.07H434.87v3.53h38.58v3a3.14,3.14,0,0,1-.48,1.82,3.58,3.58,0,0,1-1,1,3.16,3.16,0,0,1-1.14.41c-.36,0-.61.06-.74.06H454.29v4.51h27.38v2.83a3.3,3.3,0,0,1-.47,1.89,3.58,3.58,0,0,1-1,1,3.27,3.27,0,0,1-1.15.41c-.36,0-.61.07-.74.07H417.35v-3.11a3,3,0,0,1,.43-1.72,2.62,2.62,0,0,1,1-.91,3.43,3.43,0,0,1,1.14-.41c.36,0,.63-.06.82-.06h23.8v-4.51H424.9V121.5a7.1,7.1,0,0,1,2.43-5.36,8.27,8.27,0,0,1,5.85-2.25h40.2V117a3.29,3.29,0,0,1-.44,1.82,3.25,3.25,0,0,1-1,1,2.8,2.8,0,0,1-1.08.4c-.36,0-.61.06-.74.06H434.87V124h38Z" transform="translate(-2.53 -16.53)"/><path class="cls-2" d="M528.32,126.87a8.59,8.59,0,0,0-.84-3.71,9.61,9.61,0,0,0-2.23-3,10.07,10.07,0,0,0-3.32-2.11,10.72,10.72,0,0,0-4-.76,11,11,0,0,0-4.08.76,10,10,0,0,0-3.31,2.11,8.83,8.83,0,0,0-3.07,6.73,9,9,0,0,0,.8,3.83,9.53,9.53,0,0,0,2.27,3.11,10.46,10.46,0,0,0,3.31,2,11.61,11.61,0,0,0,4.08.73,11.32,11.32,0,0,0,4-.73,10.51,10.51,0,0,0,3.32-2,10.36,10.36,0,0,0,2.23-3.11,8.77,8.77,0,0,0,.84-3.83m10.32,0A12.09,12.09,0,0,1,537,133a17,17,0,0,1-4.44,5,22.14,22.14,0,0,1-6.56,3.27,26.53,26.53,0,0,1-8.1,1.2,27,27,0,0,1-8-1.17,21.9,21.9,0,0,1-6.63-3.3,16.11,16.11,0,0,1-4.43-4.9,12.11,12.11,0,0,1-1.63-6.17,11.84,11.84,0,0,1,1.59-5.94,16.51,16.51,0,0,1,4.47-4.93,22.94,22.94,0,0,1,6.56-3.3,25.67,25.67,0,0,1,8.09-1.24,25.39,25.39,0,0,1,8,1.24,22.94,22.94,0,0,1,6.56,3.3,16.79,16.79,0,0,1,4.51,4.93,11.68,11.68,0,0,1,1.63,5.94m4.12,48.25a3.33,3.33,0,0,1-.44,1.88,3.18,3.18,0,0,1-1,1,2.65,2.65,0,0,1-1.08.4,5.82,5.82,0,0,1-.75.07H493.85V164.73a6.85,6.85,0,0,1,1.45-4.67,5.36,5.36,0,0,1,4.29-1.66h4.18v13.69h39ZM550.1,148a3.14,3.14,0,0,1-.48,1.82,3.58,3.58,0,0,1-1,1,2.86,2.86,0,0,1-1.14.48c-.36,0-.6.06-.75.06H523.66V156a6.86,6.86,0,0,1-1.52,4.83,5.36,5.36,0,0,1-4.14,1.66h-4.19V151.38h-28v-3a3.29,3.29,0,0,1,.44-1.82,2.57,2.57,0,0,1,1-.95,3.41,3.41,0,0,1,1.15-.41,8.19,8.19,0,0,1,.82-.06h61Z" transform="translate(-2.53 -16.53)"/></svg>